<?xml version="1.0" encoding="utf-8"?>
<!-- Generator: Adobe Illustrator 18.0.0, SVG Export Plug-In . SVG Version: 6.00 Build 0)  -->
<!DOCTYPE svg PUBLIC "-//W3C//DTD SVG 1.1//EN" "http://www.w3.org/Graphics/SVG/1.1/DTD/svg11.dtd">
<svg version="1.1" id="Слой_1" xmlns="http://www.w3.org/2000/svg" xmlns:xlink="http://www.w3.org/1999/xlink" x="0px" y="0px"
	 viewBox="0 0 1024 768" enable-background="new 0 0 1024 768" xml:space="preserve">
<path fill="#800080"      d="
	M1017.8,271.2l-33.1-29.4c0,0-38.6,6.4-92.9,73.6c0,0-49.7,59.1-56.1,73.3c0,0-6.4-9.9-12-9.9c0,0-1.8-1.5-9.2,9.9
	c0,0-7.4,6.8-17,11.4c0,0-30.8,11-29.9,32.2c0,0-3.7-2.8-16.6,2.8c0,0-46.9-3.7-57.1,5.5c0,0-3.7-13.8-10.1-12.9
	c0,0,17.5-41.4,26.7-55.2c0,0,11-7.4,9.2-13.8c-2.9-10,21.2-6.4,21.2-6.4l-21.2-23.9l5.5-7.4l12,9.2c43.2,18.4,26.7-28.5,26.7-28.5
	c-8.3-15.6,0-20.2,0-20.2c7.4-0.9,3.7-13.8,3.7-13.8s0,0,17.5,1c0,0,0.1,0,0.1,0c17.4,0.9,17.4-15.7,17.4-15.7l12.9,8.3
	c12,15.6,15.6,7.5,15.6,7.5c5.5-48.7-35-89.3-35-89.3c7.4-8.3,0-13.8,0-13.8l27.6,3.7c52.5,11,51.5,0,51.5,0
	c-12-16.6-79.1-44.2-79.1-44.2l0.2-3.3c0-14.7-14.8-60.9-14.8-60.9c-28.2-67.7-86.1-42.2-115.5-23.3c1-2.3,1.1-4.3,0.1-5.6
	c-2.3-3-9.2-1.5-15.4,3.3c-6.2,4.8-9.5,11.1-7.2,14.1c0.9,1.2,2.5,1.6,4.4,1.5c-55.8,39.5-16.4,75.3-16.4,75.3
	c17.5,14.7,16.6,24.8,16.6,24.8c-5.3,31.3-39.6,24.8-39.6,24.8c-27.6-10.1-26.5-4.2-26.5-4.2c-1.8,17.9,21.3,22.8,21.3,22.8v25.8
	c-9.2-3.5-14,5.3-14,5.3c-5.5-4.6-23.6-14.7-23.6-14.7c-30.4-4.6-35.2-17.5-35.2-17.5c-4.6,2.8-3.6,9.7-3.6,9.7l-62.2,0.5l-18.3-11
	c0-12-27.6-4.6-27.6-4.6c-3.7-11-40.5-7.3-40.5-7.3c0-8.3-13.8-6.4-13.8-6.4c-25.8-20.2-49.7,94.8-49.7,94.8s-40.5,13.7-63.5,5.4
	c0,0-4.6-6.4-18.4,14.7c0,0-15.6,13.8-66.3,24.8c0,0-57.1,5.5-57.1,72.7c0,0-16.6,67.2-9.2,93.9c0,0,23.9,30.4,57.1,44.2
	c0,0,11,30.4,14.7,36.8c0,0-47.9,0-73.7,2.8c0,0-10.1-8.3-16.5-5.5c0,0-6.4-4.7-11-0.1l-7.4,11H50.3c0,0-28.1-18.4-39.1,7.3l-11,6.1
	c0,0-7.4,26,13.8,45.4c0,0,12-1.2,14.7,17.2c0,0-2.8,78.1,26.7,95.5c0,0,24.8,34,84.7,13.7c0,0,10.1-3.7,4.6-10.2
	c0,0,10.1-12.9-4.6-26.7c0,0-23-21.2-35-19.3c0,0-0.9-6.5-5.5-6.5l2.8-15.6c0,0,50.6-24.8,104.9-15.6c0,0,45.1,21.2,58-13.8
	c0,0,1.8-86.5-10.1-104l24.8,0.9l-1.8-43.2c0,0,30.4-12,33.1,0c0,0-0.9,42.3,12,55.2c0,0,29.4-8.3,35-23.9c0,0,6.4-9.2,10.1-8.3
	c0,0,33.1,52.5,39.6,74.6c0,0,34,79.1,66.3,112.3h15.6c0,0,2.7,12.6,13.8,14.4l14.8,11.6c0,0,19.3,6.7,32.2-7.1l27.6-24.2l-5.5-13
	c0,0,5.5-13.9,12.9-14.8c0,0,25.8-13.8,37.7-76.4c0,0,14.7-70-21.2-66.3c0,0-3.7,0-12,2.7c0,0-28.5-5.5-47.8,42.3
	c0,0-8.3,23-6.4,35.9c0,0-42.3-36.8-63.5-66.3l-29.4-50.6c0,0,4.6-14.7,9.2-19.3c0,0,7.4-18.4-14.7-16.6c0,0-8.3-12.9-18.4-8.3
	c0,0-1.8-18.4-7.4-18.4c0,0-1.8-17.5,9.2-12c0,0,27.6,32.2,57.1,4.6c0,0,30.7-15.7,64.4-0.9c0,0,39.6,6.4,77.3-25.8
	c0,0-18.4,83.7-7.4,100.3c0,0,0,14.7,24.8,10.1c0,0,45.1-5.5,64.4,12c0,0,13.8,11,18.4,6.4c0,0,0,17.5,15.6,25.8
	c0,0,18.4,14.7,27.6,7.4l29.4-35c0,0,23,7.4,20.2-18.4c0,0,9.2,1.8,12-8.3c0,0,11,0.9,16.6-16.6c0,0,19.3,1.8,12.9-28.5l1.3-3.7
	l9.9-12.2l9.9,6.7c0,0,40.3-21.2,94.8-89.3C970,358.6,1019.6,293.2,1017.8,271.2z M392.1,270.9l0-17.6c0,0,23.4,17.6,29.2,17.6
	H392.1z M997.4,299.2C930.7,401.1,885,421,885,421c18.7-41,118.3-140.5,118.3-140.5C1006.9,285.5,997.4,299.2,997.4,299.2z"/>
</svg>
